<svg width="24" height="24" viewBox="0 0 24 24" fill="none" xmlns="http://www.w3.org/2000/svg">
<path d="M11.2673 0C10.3821 0.824728 9.6722 1.81928 9.17981 2.92432C8.68741 4.02936 8.42265 5.22226 8.4013 6.43184C8.37996 7.64142 8.60248 8.84291 9.05558 9.96464C9.50869 11.0864 10.1831 12.1053 11.0386 12.9608C11.8941 13.8162 12.9131 14.4906 14.0349 14.9437C15.1566 15.3968 16.3582 15.6193 17.5678 15.5979C18.7775 15.5766 19.9704 15.3118 21.0755 14.8195C22.1806 14.3271 23.1752 13.6172 24 12.7321C23.618 19.0201 18.3976 24 12.0132 24C5.37778 24 0 18.6225 0 11.9886C0 5.60452 4.98018 0.384365 11.2673 0Z" fill="black"/>
</svg>
