<svg width="24" height="24" viewBox="0 0 24 24" fill="none" xmlns="http://www.w3.org/2000/svg">
<path d="M12 6.54545C8.98909 6.54545 6.54545 8.98909 6.54545 12C6.54545 15.0109 8.98909 17.4545 12 17.4545C15.0109 17.4545 17.4545 15.0109 17.4545 12C17.4545 8.98909 15.0109 6.54545 12 6.54545ZM1.09091 13.0909H3.27273C3.87273 13.0909 4.36364 12.6 4.36364 12C4.36364 11.4 3.87273 10.9091 3.27273 10.9091H1.09091C0.490909 10.9091 0 11.4 0 12C0 12.6 0.490909 13.0909 1.09091 13.0909ZM20.7273 13.0909H22.9091C23.5091 13.0909 24 12.6 24 12C24 11.4 23.5091 10.9091 22.9091 10.9091H20.7273C20.1273 10.9091 19.6364 11.4 19.6364 12C19.6364 12.6 20.1273 13.0909 20.7273 13.0909ZM10.9091 1.09091V3.27273C10.9091 3.87273 11.4 4.36364 12 4.36364C12.6 4.36364 13.0909 3.87273 13.0909 3.27273V1.09091C13.0909 0.490909 12.6 0 12 0C11.4 0 10.9091 0.490909 10.9091 1.09091ZM10.9091 20.7273V22.9091C10.9091 23.5091 11.4 24 12 24C12.6 24 13.0909 23.5091 13.0909 22.9091V20.7273C13.0909 20.1273 12.6 19.6364 12 19.6364C11.4 19.6364 10.9091 20.1273 10.9091 20.7273ZM5.44364 3.90545C5.34271 3.80432 5.22283 3.72409 5.09086 3.66935C4.95889 3.6146 4.81742 3.58643 4.67455 3.58643C4.53167 3.58643 4.3902 3.6146 4.25823 3.66935C4.12626 3.72409 4.00638 3.80432 3.90545 3.90545C3.80432 4.00638 3.72409 4.12626 3.66935 4.25823C3.6146 4.3902 3.58643 4.53167 3.58643 4.67455C3.58643 4.81742 3.6146 4.95889 3.66935 5.09086C3.72409 5.22283 3.80432 5.34271 3.90545 5.44364L5.06182 6.6C5.48727 7.02545 6.18546 7.02545 6.6 6.6C7.01455 6.17455 7.02545 5.47636 6.6 5.06182L5.44364 3.90545ZM18.9382 17.4C18.8373 17.2989 18.7174 17.2186 18.5854 17.1639C18.4534 17.1091 18.312 17.081 18.1691 17.081C18.0262 17.081 17.8847 17.1091 17.7528 17.1639C17.6208 17.2186 17.5009 17.2989 17.4 17.4C17.2989 17.5009 17.2186 17.6208 17.1639 17.7528C17.1091 17.8847 17.081 18.0262 17.081 18.1691C17.081 18.312 17.1091 18.4534 17.1639 18.5854C17.2186 18.7174 17.2989 18.8373 17.4 18.9382L18.5564 20.0945C18.9818 20.52 19.68 20.52 20.0945 20.0945C20.1957 19.9936 20.2759 19.8737 20.3307 19.7418C20.3854 19.6098 20.4136 19.4683 20.4136 19.3255C20.4136 19.1826 20.3854 19.0411 20.3307 18.9091C20.2759 18.7772 20.1957 18.6573 20.0945 18.5564L18.9382 17.4ZM20.0945 5.44364C20.1957 5.34271 20.2759 5.22283 20.3307 5.09086C20.3854 4.95889 20.4136 4.81742 20.4136 4.67455C20.4136 4.53167 20.3854 4.3902 20.3307 4.25823C20.2759 4.12626 20.1957 4.00638 20.0945 3.90545C19.9936 3.80432 19.8737 3.72409 19.7418 3.66935C19.6098 3.6146 19.4683 3.58643 19.3255 3.58643C19.1826 3.58643 19.0411 3.6146 18.9091 3.66935C18.7772 3.72409 18.6573 3.80432 18.5564 3.90545L17.4 5.06182C16.9745 5.48727 16.9745 6.18546 17.4 6.6C17.8255 7.01455 18.5236 7.02545 18.9382 6.6L20.0945 5.44364ZM6.6 18.9382C6.70113 18.8373 6.78136 18.7174 6.83611 18.5854C6.89085 18.4534 6.91903 18.312 6.91903 18.1691C6.91903 18.0262 6.89085 17.8847 6.83611 17.7528C6.78136 17.6208 6.70113 17.5009 6.6 17.4C6.49908 17.2989 6.3792 17.2186 6.24723 17.1639C6.11526 17.1091 5.97378 17.081 5.83091 17.081C5.68803 17.081 5.54656 17.1091 5.41459 17.1639C5.28262 17.2186 5.16274 17.2989 5.06182 17.4L3.90545 18.5564C3.48 18.9818 3.48 19.68 3.90545 20.0945C4.33091 20.5091 5.02909 20.52 5.44364 20.0945L6.6 18.9382Z" fill="white"/>
</svg>
